<svg width="40" height="40" viewBox="0 0 40 40" fill="none" xmlns="http://www.w3.org/2000/svg">
<rect opacity="0.8" width="40" height="40" rx="4" fill="black" fill-opacity="0.8"/>
<path d="M20.0033 12.3084C15.7468 12.3084 12.3134 15.7425 12.3134 20C12.3134 24.2575 15.7468 27.6916 20.0033 27.6916C24.2599 27.6916 27.6933 24.2575 27.6933 20C27.6933 15.7425 24.2599 12.3084 20.0033 12.3084ZM20.0033 25.0006C17.2526 25.0006 15.0039 22.758 15.0039 20C15.0039 17.242 17.246 14.9994 20.0033 14.9994C22.7607 14.9994 25.0028 17.242 25.0028 20C25.0028 22.758 22.754 25.0006 20.0033 25.0006ZM29.8014 11.9938C29.8014 12.9912 28.9983 13.7878 28.0078 13.7878C27.0106 13.7878 26.2142 12.9845 26.2142 11.9938C26.2142 11.003 27.0173 10.1997 28.0078 10.1997C28.9983 10.1997 29.8014 11.003 29.8014 11.9938ZM34.8946 13.8146C34.7808 11.4114 34.232 9.28261 32.4718 7.52873C30.7183 5.77485 28.5901 5.22593 26.1874 5.10543C23.7111 4.96486 16.2889 4.96486 13.8126 5.10543C11.4166 5.21923 9.28834 5.76816 7.52817 7.52204C5.76799 9.27591 5.22588 11.4047 5.10541 13.8079C4.96486 16.2847 4.96486 23.7086 5.10541 26.1854C5.21919 28.5886 5.76799 30.7174 7.52817 32.4713C9.28834 34.2251 11.4099 34.7741 13.8126 34.8946C16.2889 35.0351 23.7111 35.0351 26.1874 34.8946C28.5901 34.7808 30.7183 34.2318 32.4718 32.4713C34.2253 30.7174 34.7741 28.5886 34.8946 26.1854C35.0351 23.7086 35.0351 16.2914 34.8946 13.8146ZM31.6955 28.843C31.1735 30.1551 30.1629 31.1659 28.8444 31.6947C26.8701 32.478 22.1852 32.2972 20.0033 32.2972C17.8215 32.2972 13.1299 32.4713 11.1623 31.6947C9.85053 31.1726 8.83993 30.1618 8.31121 28.843C7.52817 26.8682 7.70887 22.1823 7.70887 20C7.70887 17.8177 7.53486 13.1251 8.31121 11.157C8.83324 9.84492 9.84384 8.8341 11.1623 8.30525C13.1366 7.52203 17.8215 7.70278 20.0033 7.70278C22.1852 7.70278 26.8767 7.52873 28.8444 8.30525C30.1562 8.8274 31.1668 9.83822 31.6955 11.157C32.4785 13.1318 32.2978 17.8177 32.2978 20C32.2978 22.1823 32.4785 26.8749 31.6955 28.843Z" fill="#EEEAE9"/>
</svg>
