<svg width="90" height="24" viewBox="0 0 90 24" fill="none" xmlns="http://www.w3.org/2000/svg">
<path d="M6.32 18.128C4.82667 18.128 3.664 17.7013 2.832 16.848C2 15.9947 1.584 14.768 1.584 13.168V6.8H3.184V13.104C3.184 15.504 4.23467 16.704 6.336 16.704C7.36 16.704 8.144 16.4107 8.688 15.824C9.232 15.2267 9.504 14.32 9.504 13.104V6.8H11.056V13.168C11.056 14.7787 10.64 16.0107 9.808 16.864C8.976 17.7067 7.81333 18.128 6.32 18.128ZM17.9843 13.024L15.9363 15.104V18H14.3363V6.8H15.9363V13.056L22.0163 6.8H23.8403L19.0563 11.84L24.1443 18H22.2723L17.9843 13.024ZM33.3243 18L30.9083 14.56C30.6096 14.5813 30.3749 14.592 30.2043 14.592H27.4363V18H25.8363V6.8H30.2043C31.6549 6.8 32.7963 7.14667 33.6283 7.84C34.4603 8.53333 34.8763 9.488 34.8763 10.704C34.8763 11.568 34.6629 12.304 34.2363 12.912C33.8096 13.52 33.2016 13.9627 32.4123 14.24L35.0683 18H33.3243ZM30.1563 13.232C31.1696 13.232 31.9429 13.0133 32.4763 12.576C33.0096 12.1387 33.2763 11.5147 33.2763 10.704C33.2763 9.89333 33.0096 9.27467 32.4763 8.848C31.9429 8.41067 31.1696 8.192 30.1563 8.192H27.4363V13.232H30.1563Z" fill="black"/>
<rect x="44" y="4" width="1" height="16" fill="black"/>
<path d="M62.808 16.608V18H54.68V6.8H62.584V8.192H56.28V11.632H61.896V12.992H56.28V16.608H62.808ZM75.0308 6.8V18H73.7188L66.9988 9.648V18H65.3988V6.8H66.7108L73.4308 15.152V6.8H75.0308ZM86.1431 12.336H87.6791V16.704C87.1245 17.1627 86.4791 17.5147 85.7431 17.76C85.0071 18.0053 84.2391 18.128 83.4391 18.128C82.3085 18.128 81.2898 17.8827 80.3831 17.392C79.4765 16.8907 78.7618 16.208 78.2391 15.344C77.7271 14.4693 77.4711 13.488 77.4711 12.4C77.4711 11.312 77.7271 10.3307 78.2391 9.456C78.7618 8.58133 79.4765 7.89867 80.3831 7.408C81.3005 6.91733 82.3298 6.672 83.4711 6.672C84.3671 6.672 85.1778 6.82133 85.9031 7.12C86.6391 7.408 87.2631 7.83467 87.7751 8.4L86.7831 9.392C85.8871 8.528 84.8045 8.096 83.5351 8.096C82.6818 8.096 81.9138 8.28267 81.2311 8.656C80.5591 9.01867 80.0311 9.53067 79.6471 10.192C79.2631 10.8427 79.0711 11.5787 79.0711 12.4C79.0711 13.2107 79.2631 13.9467 79.6471 14.608C80.0311 15.2587 80.5591 15.7707 81.2311 16.144C81.9138 16.5173 82.6765 16.704 83.5191 16.704C84.5218 16.704 85.3965 16.464 86.1431 15.984V12.336Z" fill="black"/>
</svg>
