<svg width="40" height="40" viewBox="0 0 40 40" fill="none" xmlns="http://www.w3.org/2000/svg">
<rect opacity="0.8" width="40" height="40" rx="4" fill="black" fill-opacity="0.8"/>
<path d="M29.995 30V29.9992H30V22.6642C30 19.0759 29.2275 16.3117 25.0325 16.3117C23.0159 16.3117 21.6625 17.4184 21.11 18.4675H21.0517V16.6467H17.0742V29.9992H21.2159V23.3875C21.2159 21.6467 21.5459 19.9634 23.7017 19.9634C25.8259 19.9634 25.8575 21.95 25.8575 23.4992V30H29.995Z" fill="#EEEAE9"/>
<path d="M10.3301 16.6475H14.4767V30H10.3301V16.6475Z" fill="#EEEAE9"/>
<path d="M12.4017 10C11.0758 10 10 11.0758 10 12.4017C10 13.7275 11.0758 14.8258 12.4017 14.8258C13.7275 14.8258 14.8033 13.7275 14.8033 12.4017C14.8025 11.0758 13.7267 10 12.4017 10V10Z" fill="#EEEAE9"/>
</svg>
