<svg width="121" height="24" viewBox="0 0 121 24" fill="none" xmlns="http://www.w3.org/2000/svg">
<path fill-rule="evenodd" clip-rule="evenodd" d="M39.605 23.4959V0.0810547H55.2909V2.82826H42.6901V10.1206H53.6022V12.8676H42.6901V23.4959H39.605ZM54.9391 23.4959L63.8589 0.0810547H67.2415L76.7085 23.4959H73.2064L70.5162 16.3998H60.725L58.2028 23.4959H54.9391ZM61.6288 13.8815H69.5527L67.1278 7.39023C66.3974 5.41718 65.8455 3.7874 65.4611 2.50075C65.1417 4.02727 64.7139 5.52586 64.1782 7.00844L61.6288 13.8815ZM79.1495 23.4959V0.0810547H87.1599C88.968 0.0810547 90.3481 0.190224 91.3006 0.413362C92.6322 0.724378 93.769 1.28536 94.7105 2.09213C95.9394 3.13878 96.8541 4.46863 97.4605 6.09263C98.0721 7.71712 98.3752 9.57583 98.3752 11.6633C98.3752 13.4402 98.1695 15.0152 97.7578 16.3887C97.3463 17.7623 96.8159 18.9012 96.1719 19.8008C95.5225 20.6999 94.8189 21.4084 94.0502 21.921C93.2872 22.4388 92.3615 22.8311 91.2792 23.0984C90.1911 23.3652 88.9465 23.4959 87.539 23.4959H79.1495ZM82.2348 20.7489H87.1923C88.7244 20.7489 89.9261 20.6076 90.7974 20.3186C91.6687 20.0296 92.3615 19.6263 92.8814 19.1032C93.6067 18.3672 94.1748 17.3753 94.5805 16.1325C94.9869 14.8898 95.1921 13.3854 95.1921 11.6142C95.1921 9.16143 94.7916 7.27527 93.9962 5.95663C93.2003 4.63736 92.2317 3.75466 91.0896 3.30752C90.2669 2.98592 88.9407 2.82826 87.1112 2.82826H82.2348V20.7489ZM117.833 0.0810547H120.918V13.6036C120.918 15.958 120.653 17.8278 120.129 19.2119C119.598 20.5912 118.645 21.7191 117.27 22.5859C115.89 23.4522 114.087 23.8883 111.847 23.8883C109.676 23.8883 107.896 23.5123 106.515 22.7546C105.13 21.997 104.145 20.907 103.555 19.4739C102.965 18.0402 102.667 16.0835 102.667 13.6036V0.0810547H105.753V13.598C105.753 15.6311 105.942 17.1354 106.315 18.0946C106.689 19.0595 107.327 19.8061 108.243 20.3239C109.151 20.847 110.267 21.109 111.582 21.109C113.833 21.109 115.442 20.5912 116.399 19.5609C117.357 18.5254 117.833 16.5412 117.833 13.598V0.0810547Z" fill="#1E201E"/>
<path fill-rule="evenodd" clip-rule="evenodd" d="M3.11946 10.2502H28.4453C30.1559 10.2502 31.5557 8.84064 31.5557 7.11806V3.62194C31.5557 1.89935 30.1559 0.489746 28.4453 0.489746H3.11946C1.40884 0.489746 0.0090332 1.89935 0.0090332 3.62194V7.11806C0.0090332 8.84064 1.40884 10.2502 3.11946 10.2502Z" fill="#3A6DB0"/>
<path fill-rule="evenodd" clip-rule="evenodd" d="M3.11946 22.6719H28.4453C30.1559 22.6719 31.5557 21.2628 31.5557 19.5402V16.0441C31.5557 14.3213 30.1559 12.9117 28.4453 12.9117H3.11946C1.40884 12.9117 0.0090332 14.3213 0.0090332 16.0441V19.5402C0.0090332 21.2628 1.40884 22.6719 3.11946 22.6719Z" fill="#FFDC45"/>
</svg>
