<svg width="40" height="40" viewBox="0 0 40 40" fill="none" xmlns="http://www.w3.org/2000/svg">
<rect opacity="0.8" width="40" height="40" rx="4" fill="black" fill-opacity="0.8"/>
<path d="M28.7395 15.9902C29.6342 15.4215 30.3868 14.7118 31 13.8946V13.8937C30.1814 14.2146 29.3106 14.4279 28.4013 14.5313C29.3363 14.0316 30.0503 13.2464 30.3858 12.3003C29.5141 12.7655 28.5516 13.0937 27.5258 13.2775C26.6981 12.4882 25.5183 12 24.2313 12C21.7343 12 19.7241 13.8142 19.7241 16.0377C19.7241 16.3577 19.7543 16.6654 19.8286 16.9584C16.0794 16.7943 12.7611 15.1861 10.5318 12.7352C10.1431 13.3399 9.91392 14.0316 9.91392 14.7758C9.91392 16.1739 10.7178 17.4129 11.9178 18.1309C11.1927 18.1186 10.4823 17.9298 9.88 17.6336V17.6779C9.88 19.6398 11.4429 21.2693 13.4935 21.6451C13.1259 21.7354 12.7263 21.7781 12.311 21.7781C12.0223 21.7781 11.7308 21.7633 11.4576 21.7091C12.0415 23.3075 13.7007 24.4833 15.6715 24.5218C14.137 25.5959 12.1882 26.2433 10.0789 26.2433C9.7095 26.2433 9.35475 26.2285 9 26.1883C10.9983 27.3411 13.3652 28 15.919 28C23.8784 28 29.0658 22.0562 28.7395 15.9902V15.9902Z" fill="#EEEAE9"/>
</svg>
