<svg width="40" height="40" viewBox="0 0 40 40" fill="none" xmlns="http://www.w3.org/2000/svg">
<rect width="40" height="40" rx="4" fill="black" fill-opacity="0.8"/>
<path d="M29.5879 15.1907C29.3575 14.334 28.6819 13.6588 27.8252 13.4281C26.2602 13 19.9998 13 19.9998 13C19.9998 13 13.7396 13 12.1746 13.4119C11.3344 13.6423 10.6423 14.3342 10.4119 15.1907C10 16.7553 10 20 10 20C10 20 10 23.2611 10.4119 24.8093C10.6426 25.6658 11.3179 26.3411 12.1747 26.5718C13.7561 27 20 27 20 27C20 27 26.2602 27 27.8252 26.5881C28.682 26.3576 29.3575 25.6823 29.5882 24.8258C29.9999 23.2611 29.9999 20.0165 29.9999 20.0165C29.9999 20.0165 30.0164 16.7553 29.5879 15.1907V15.1907ZM18.0066 22.9976V17.0024L23.2124 20L18.0066 22.9976Z" fill="#EEEAE9"/>
</svg>
